<svg xmlns="http://www.w3.org/2000/svg" xmlns:xlink="http://www.w3.org/1999/xlink" width="500" zoomAndPan="magnify" viewBox="0 0 375 374.999991" height="500" preserveAspectRatio="xMidYMid meet" version="1.0"><defs><g/><clipPath id="6f860f1fdc"><path d="M 141 148.117188 L 244 148.117188 L 244 197.617188 L 141 197.617188 Z M 141 148.117188 " clip-rule="nonzero"/></clipPath><clipPath id="b60b33852b"><path d="M 185 193 L 192 193 L 192 197.617188 L 185 197.617188 Z M 185 193 " clip-rule="nonzero"/></clipPath><clipPath id="16c47b843d"><path d="M 193 193 L 200 193 L 200 197.617188 L 193 197.617188 Z M 193 193 " clip-rule="nonzero"/></clipPath><clipPath id="d2111cf4b7"><path d="M 69.757812 168 L 158 168 L 158 197.617188 L 69.757812 197.617188 Z M 69.757812 168 " clip-rule="nonzero"/></clipPath><clipPath id="fd327790e2"><path d="M 227 168 L 317.257812 168 L 317.257812 197.617188 L 227 197.617188 Z M 227 168 " clip-rule="nonzero"/></clipPath></defs><g clip-path="url(#6f860f1fdc)"><path fill="#9bcb6c" d="M 192.511719 148.128906 L 213.527344 169.140625 L 214.929688 173.625 L 214.929688 163.746094 L 221.734375 163.867188 L 221.734375 180.335938 L 222.480469 178.09375 L 243.511719 199.125 L 229.886719 199.125 L 192.511719 161.75 L 155.136719 199.125 L 141.515625 199.125 L 192.511719 148.128906 " fill-opacity="1" fill-rule="nonzero"/></g><g clip-path="url(#b60b33852b)"><path fill="#585354" d="M 191.238281 199.125 L 185.210938 199.125 L 185.210938 193.097656 L 191.238281 193.097656 L 191.238281 199.125 " fill-opacity="1" fill-rule="nonzero"/></g><g clip-path="url(#16c47b843d)"><path fill="#585354" d="M 199.816406 199.125 L 193.785156 199.125 L 193.785156 193.097656 L 199.816406 193.097656 L 199.816406 199.125 " fill-opacity="1" fill-rule="nonzero"/></g><path fill="#585354" d="M 191.238281 191.242188 L 185.210938 191.242188 L 185.210938 185.214844 L 191.238281 185.214844 L 191.238281 191.242188 " fill-opacity="1" fill-rule="nonzero"/><path fill="#585354" d="M 199.816406 191.242188 L 193.785156 191.242188 L 193.785156 185.214844 L 199.816406 185.214844 L 199.816406 191.242188 " fill-opacity="1" fill-rule="nonzero"/><path fill="#585354" d="M 192.511719 170.933594 L 214.671875 187.539062 L 192.511719 165.378906 L 170.351562 187.539062 L 192.511719 170.933594 " fill-opacity="1" fill-rule="nonzero"/><g clip-path="url(#d2111cf4b7)"><path fill="#585354" d="M 130.855469 185.214844 L 129.753906 188.726562 L 129.753906 180.988281 L 124.425781 181.082031 L 124.425781 193.984375 L 123.839844 192.230469 L 119.957031 196.109375 L 51.695312 196.109375 L 51.695312 199.125 L 127.617188 199.125 L 147.320312 179.421875 L 152.035156 184.140625 L 157.371094 178.804688 L 147.320312 168.75 L 130.855469 185.214844 " fill-opacity="1" fill-rule="nonzero"/></g><g clip-path="url(#fd327790e2)"><path fill="#585354" d="M 265.066406 196.109375 L 261.183594 192.230469 L 260.597656 193.984375 L 260.597656 181.082031 L 255.269531 180.988281 L 255.269531 188.726562 L 254.167969 185.214844 L 237.707031 168.75 L 227.65625 178.804688 L 232.992188 184.140625 L 237.707031 179.421875 L 257.40625 199.125 L 333.332031 199.125 L 333.332031 196.109375 L 265.066406 196.109375 " fill-opacity="1" fill-rule="nonzero"/></g><g fill="#545454" fill-opacity="1"><g transform="translate(119.454239, 230.99751)"><g><path d="M 3.734375 0.109375 L 3.015625 -0.359375 L 2.625 -1.109375 L 2.65625 -9.0625 L 2.59375 -9.75 L 2.703125 -13.375 L 2.625 -14.09375 L 2.65625 -19.84375 L 2.59375 -20.5 L 2.703125 -21.890625 L 2.59375 -24.09375 L 2.984375 -24.84375 L 3.78125 -25.203125 L 4.78125 -24.921875 L 5.609375 -24.296875 L 6.546875 -23.328125 L 7.125 -22.828125 L 8.046875 -21.71875 L 8.5625 -21.28125 L 11.828125 -17.65625 L 12.625 -16.9375 L 13.265625 -16.109375 L 13.765625 -15.609375 L 14.203125 -15 L 14.953125 -14.703125 L 15.609375 -15.140625 L 17.796875 -17.359375 L 18.265625 -17.96875 L 21.421875 -21.21875 L 21.9375 -21.859375 L 22.359375 -22.25 L 22.828125 -22.828125 L 24.34375 -24.40625 L 25.09375 -24.875 L 26.140625 -25.203125 L 26.890625 -24.8125 L 27.328125 -24.046875 L 27.25 -23.375 L 27.28125 -21.890625 L 27.25 -21.28125 L 27.328125 -19.734375 L 27.28125 -19.0625 L 27.328125 -15.5 L 27.25 -14.703125 L 27.328125 -3.921875 L 27.25 -3.203125 L 27.359375 -1.328125 L 26.921875 -0.28125 L 26.171875 0.109375 L 21.828125 -0.03125 L 21.0625 -0.25 L 20.78125 -1.078125 L 20.78125 -1.625 L 20.703125 -3.234375 L 20.78125 -3.890625 L 20.703125 -5.21875 L 20.78125 -6.609375 L 20.671875 -8.046875 L 20.75 -10.03125 L 20.453125 -10.5625 L 19.984375 -10.359375 L 18.515625 -8.84375 L 18.015625 -8.484375 L 17 -7.296875 L 16.578125 -6.859375 L 16.078125 -6.328125 L 15.359375 -5.78125 L 14.5625 -5.828125 L 13.8125 -6.359375 L 12.828125 -7.296875 L 12.375 -7.875 L 10.890625 -9.34375 L 10.46875 -9.890625 L 9.890625 -10.359375 L 9.53125 -10.5 L 9.203125 -10.171875 L 9.203125 -8.765625 L 9.28125 -7.984375 L 9.203125 -6.6875 L 9.234375 -5.9375 L 9.125 -4.8125 L 9.234375 -1.046875 L 8.8125 -0.390625 L 7.796875 0.03125 L 6.65625 -0.03125 L 5.859375 0.078125 L 4.453125 0 Z M 3.734375 0.109375 "/></g></g></g><g fill="#545454" fill-opacity="1"><g transform="translate(149.501261, 230.99751)"><g><path d="M 14.421875 0.46875 L 12.265625 0.359375 L 9.203125 -0.546875 L 8.515625 -0.828125 L 6.078125 -2.125 L 5.609375 -2.65625 L 4.609375 -3.625 L 2.90625 -5.9375 L 2.546875 -6.578125 L 2.34375 -7.328125 L 1.796875 -8.5625 L 1.40625 -10.828125 L 1.546875 -15 L 1.828125 -16.53125 L 2.515625 -18.515625 L 2.84375 -19.125 L 4.0625 -20.921875 L 5.03125 -22 L 6.1875 -22.796875 L 6.6875 -23.21875 L 8.515625 -24.375 L 9.890625 -24.734375 L 10.53125 -25.015625 L 11.25 -25.234375 L 11.96875 -25.390625 L 14.484375 -25.53125 L 16.171875 -25.484375 L 20.890625 -24.015625 L 22.71875 -22.859375 L 24.265625 -21.46875 L 24.734375 -20.8125 L 25.171875 -20.390625 L 25.640625 -19.78125 L 25.890625 -19.125 L 26.53125 -17.9375 L 26.71875 -17.109375 L 27 -16.359375 L 27.28125 -15.03125 L 27.46875 -12.546875 L 27.28125 -10.03125 L 27.140625 -9.234375 L 26.921875 -8.671875 L 26.828125 -7.953125 L 26.5625 -7.265625 L 25.171875 -4.78125 L 24.703125 -4.140625 L 22.1875 -1.71875 L 18.984375 -0.28125 L 17.609375 0.140625 Z M 13.40625 -5.859375 L 15.5 -5.9375 L 16.171875 -6.109375 L 16.828125 -6.1875 L 17.40625 -6.5 L 18.046875 -6.796875 L 19.15625 -7.65625 L 19.59375 -8.3125 L 19.921875 -8.84375 L 20.3125 -9.390625 L 20.640625 -10.859375 L 20.859375 -12.65625 L 20.703125 -14.203125 L 20.453125 -14.84375 L 20.234375 -15.5625 L 19.953125 -16.21875 L 19.125 -17.4375 L 18.015625 -18.265625 L 16.109375 -19.09375 L 14.375 -19.203125 L 12.734375 -19.0625 L 11.96875 -18.875 L 11.328125 -18.546875 L 10.28125 -17.828125 L 9.75 -17.359375 L 9.28125 -16.796875 L 8.953125 -16.171875 L 8.515625 -15.671875 L 8.3125 -15.03125 L 8.046875 -13.703125 L 8.015625 -12.625 L 8.203125 -10.828125 L 8.875 -8.8125 L 9.34375 -8.3125 L 9.703125 -7.796875 L 10.828125 -6.828125 L 12.046875 -6.1875 L 12.6875 -6.109375 Z M 13.40625 -5.859375 "/></g></g></g><g fill="#545454" fill-opacity="1"><g transform="translate(178.326282, 230.99751)"><g><path d="M 9.671875 0.328125 L 8.203125 0.078125 L 6.796875 -0.4375 L 6.078125 -0.640625 L 5.390625 -0.96875 L 4.890625 -1.515625 L 3.625 -2.296875 L 3.15625 -2.84375 L 2.65625 -3.3125 L 1.984375 -4.640625 L 1.765625 -5.28125 L 1.625 -6 L 1.515625 -6.71875 L 1.796875 -7.484375 L 2.4375 -7.765625 L 5.21875 -7.90625 L 5.890625 -7.796875 L 6.546875 -7.875 L 7.265625 -7.59375 L 8.453125 -6.296875 L 9.0625 -5.890625 L 9.671875 -5.578125 L 11.5 -5.390625 L 12.15625 -5.5 L 13.265625 -5.578125 L 14.484375 -6.109375 L 14.953125 -6.65625 L 15.25 -7.546875 L 15.03125 -8.453125 L 14.5625 -8.875 L 13.265625 -9.484375 L 7.625 -10.140625 L 6.328125 -10.5625 L 3.890625 -11.90625 L 2.546875 -13.546875 L 1.984375 -14.8125 L 1.71875 -16.25 L 1.6875 -17.359375 L 1.796875 -19.125 L 2.4375 -21.109375 L 3.703125 -22.796875 L 5.421875 -23.984375 L 6.65625 -24.703125 L 8.015625 -25.125 L 8.671875 -25.234375 L 9.390625 -25.28125 L 10.171875 -25.484375 L 12.9375 -25.421875 L 14.34375 -25.125 L 16.359375 -24.453125 L 18.734375 -22.796875 L 19.515625 -21.71875 L 20.53125 -19.84375 L 20.59375 -19.15625 L 20.75 -18.484375 L 20.453125 -17.875 L 19.78125 -17.359375 L 19.125 -17.4375 L 18.40625 -17.4375 L 17.4375 -17.515625 L 15.75 -17.359375 L 14.953125 -17.828125 L 14.421875 -18.546875 L 13.8125 -19.0625 L 13.15625 -19.484375 L 12.515625 -19.671875 L 11.359375 -19.8125 L 10.203125 -19.78125 L 9.5625 -19.625 L 8.984375 -19.3125 L 8.453125 -18.90625 L 8.015625 -18.4375 L 7.84375 -17.46875 L 7.984375 -16.390625 L 8.515625 -15.890625 L 9.84375 -15.25 L 11.75 -14.84375 L 12.796875 -14.84375 L 13.546875 -14.703125 L 14.265625 -14.671875 L 15 -14.5625 L 17.796875 -13.703125 L 18.4375 -13.296875 L 19.015625 -13.015625 L 19.671875 -12.4375 L 20.59375 -11.359375 L 21 -10.78125 L 21.53125 -8.703125 L 21.609375 -7.546875 L 21.390625 -5.75 L 21.171875 -5.140625 L 20.953125 -4.5 L 20.5625 -3.703125 L 20.203125 -3.203125 L 19.15625 -2.125 L 16.71875 -0.640625 L 16.03125 -0.328125 L 15.390625 -0.25 L 14.671875 0.03125 L 13.953125 0.140625 L 13.234375 0.328125 L 12.515625 0.390625 Z M 9.671875 0.328125 "/></g></g></g><g fill="#545454" fill-opacity="1"><g transform="translate(201.256911, 230.99751)"><g><path d="M 1.296875 -11 L 1.296875 -14.0625 L 1.625 -14.734375 L 2.375 -15.171875 L 3.0625 -15.25 L 3.78125 -15.171875 L 7.953125 -15.25 L 8.625 -15.09375 L 12.265625 -15.140625 L 12.984375 -14.734375 L 13.234375 -13.953125 L 13.296875 -11.03125 L 12.875 -10.28125 L 11.796875 -9.921875 L 9.671875 -9.890625 L 8.953125 -10 L 6.5 -10 L 5.890625 -9.890625 L 4.453125 -10 L 3.78125 -9.84375 L 3.015625 -9.921875 L 2.265625 -9.890625 L 1.625 -10.3125 Z M 1.296875 -11 "/></g></g></g><g fill="#9bcb6c" fill-opacity="1"><g transform="translate(215.993295, 230.99751)"><g><path d="M 0.46875 -0.90625 L 0.796875 -1.71875 L 1.15625 -2.40625 L 1.546875 -2.90625 L 1.90625 -3.59375 L 2.703125 -4.671875 L 3.84375 -6.578125 L 4.28125 -7.125 L 5 -8.40625 L 5.46875 -8.875 L 5.828125 -9.53125 L 6.1875 -9.953125 L 6.90625 -11.25 L 7.734375 -12.4375 L 7.875 -13.234375 L 7.65625 -14.203125 L 7.328125 -14.734375 L 6.828125 -15.390625 L 6.109375 -16.609375 L 5.6875 -17.15625 L 5.28125 -17.828125 L 4.859375 -18.375 L 4.09375 -19.671875 L 3.09375 -21.0625 L 2.515625 -22.109375 L 1.625 -23.296875 L 1.265625 -24.09375 L 1.328125 -24.875 L 2.15625 -25.09375 L 3.234375 -25.0625 L 4.34375 -25.203125 L 5.171875 -25.09375 L 5.890625 -25.09375 L 6.6875 -25.203125 L 7.546875 -24.8125 L 8.3125 -24.203125 L 10.140625 -21.25 L 10.390625 -20.59375 L 10.78125 -20.140625 L 11.140625 -19.421875 L 11.5 -18.84375 L 12.015625 -18.953125 L 13.625 -21.21875 L 13.875 -21.9375 L 15.0625 -23.578125 L 15.359375 -24.265625 L 16.171875 -24.8125 L 17.046875 -25.125 L 17.71875 -25.203125 L 20.3125 -25.09375 L 21.46875 -25.171875 L 22.25 -24.921875 L 22.4375 -24.15625 L 20.34375 -20.921875 L 20.03125 -20.28125 L 17.46875 -16.640625 L 17.109375 -15.96875 L 16.390625 -14.84375 L 15.890625 -14.203125 L 15.71875 -13.34375 L 15.921875 -12.4375 L 16.359375 -11.90625 L 18.015625 -9.125 L 19.09375 -7.734375 L 19.78125 -6.46875 L 20.234375 -5.828125 L 20.5 -5.359375 L 21.75 -3.625 L 22.078125 -3.015625 L 22.859375 -1.875 L 23.296875 -0.96875 L 23.1875 -0.140625 L 22.46875 0.03125 L 21.75 -0.078125 L 17.609375 0.140625 L 16.75 -0.25 L 16.078125 -0.9375 L 12.46875 -6.96875 L 12.046875 -7.515625 L 11.609375 -7.546875 L 11.21875 -7.015625 L 10.53125 -5.640625 L 10.0625 -5.171875 L 9.75 -4.5 L 8.703125 -2.734375 L 8.375 -2.015625 L 7.984375 -1.46875 L 7.6875 -0.90625 L 6.90625 -0.328125 L 6.078125 -0.078125 L 5 0.03125 L 1.21875 0.078125 L 0.578125 -0.1875 Z M 0.46875 -0.90625 "/></g></g></g><g fill="#585858" fill-opacity="1"><g transform="translate(241.848651, 230.647089)"><g><path d="M 2.109375 0.0625 L 1.9375 0.0625 L 1.71875 0.015625 L 1.578125 -0.03125 L 1.1875 -0.25 L 1.109375 -0.390625 L 0.921875 -0.53125 L 0.8125 -0.671875 L 0.734375 -0.859375 L 0.6875 -1.03125 L 0.671875 -1.84375 L 0.75 -2.03125 L 0.796875 -2.1875 L 1.078125 -2.484375 L 1.40625 -2.765625 L 1.546875 -2.828125 L 1.75 -2.890625 L 2.125 -2.96875 L 2.515625 -2.984375 L 2.6875 -2.96875 L 2.90625 -2.875 L 3.109375 -2.84375 L 3.265625 -2.75 L 3.453125 -2.640625 L 3.5625 -2.484375 L 3.6875 -2.375 L 3.796875 -2.203125 L 3.90625 -1.984375 L 3.9375 -1.8125 L 4 -1.609375 L 3.984375 -1.21875 L 3.828125 -0.703125 L 3.71875 -0.53125 L 3.5625 -0.375 L 3.40625 -0.234375 L 3.28125 -0.171875 L 3.0625 -0.03125 L 2.875 0.03125 L 2.71875 0.03125 L 2.53125 0.078125 Z M 2.109375 0.0625 "/></g></g></g><g fill="#585858" fill-opacity="1"><g transform="translate(246.597891, 230.647089)"><g><path d="M 1.25 -0.515625 L 1.21875 -0.84375 L 1.25 -4.5 L 1.203125 -5 L 1.265625 -8.203125 L 1.21875 -8.90625 L 1.25 -9.890625 L 1.234375 -10.1875 L 1.25 -10.546875 L 1.21875 -10.84375 L 1.21875 -11.21875 L 1.390625 -11.5625 L 1.75 -11.734375 L 3.78125 -11.703125 L 4.078125 -11.765625 L 4.734375 -11.6875 L 5.03125 -11.75 L 6.765625 -11.703125 L 7.40625 -11.546875 L 7.703125 -11.453125 L 8.015625 -11.296875 L 8.296875 -11.125 L 8.53125 -10.9375 L 8.78125 -10.78125 L 9.03125 -10.546875 L 9.59375 -9.765625 L 9.703125 -9.421875 L 9.84375 -8.8125 L 9.875 -8.296875 L 9.859375 -7.734375 L 9.65625 -7.125 L 9.34375 -6.46875 L 9.21875 -6.15625 L 9.390625 -5.765625 L 9.65625 -5.546875 L 9.875 -5.28125 L 10.171875 -4.609375 L 10.359375 -4 L 10.328125 -2.640625 L 10.1875 -2.328125 L 10.09375 -2.015625 L 9.921875 -1.671875 L 9.46875 -1.046875 L 8.796875 -0.515625 L 8.5 -0.375 L 7.5625 -0.09375 L 7.265625 -0.046875 L 5.546875 0.03125 L 5.203125 -0.015625 L 2.78125 0.015625 L 2.28125 -0.03125 L 1.71875 0.015625 L 1.40625 -0.1875 Z M 4.6875 -7.140625 L 5.96875 -7.203125 L 6.453125 -7.359375 L 6.703125 -7.5625 L 6.828125 -8.046875 L 6.78125 -8.546875 L 6.640625 -8.8125 L 6.375 -8.953125 L 4.65625 -9.0625 L 4.328125 -8.875 L 4.140625 -8.390625 L 4.15625 -7.8125 L 4.328125 -7.34375 Z M 4.640625 -2.671875 L 5.921875 -2.640625 L 6.84375 -2.734375 L 7.125 -2.90625 L 7.3125 -3.140625 L 7.390625 -3.625 L 7.296875 -4.046875 L 7.125 -4.34375 L 6.84375 -4.46875 L 5.265625 -4.625 L 4.921875 -4.578125 L 4.609375 -4.640625 L 4.3125 -4.421875 L 4.171875 -4.140625 L 4.109375 -3.125 L 4.328125 -2.796875 Z M 4.640625 -2.671875 "/></g></g></g><g fill="#585858" fill-opacity="1"><g transform="translate(257.634859, 230.647089)"><g><path d="M 5.828125 0.046875 L 5.484375 0.015625 L 5.15625 0.046875 L 4.765625 0.03125 L 4.453125 -0.03125 L 3.765625 0.015625 L 3.46875 0 L 3.09375 0.03125 L 1.890625 0.015625 L 1.390625 -0.203125 L 1.25 -0.65625 L 1.21875 -1.015625 L 1.265625 -2.171875 L 1.21875 -2.515625 L 1.25 -2.828125 L 1.265625 -5.546875 L 1.21875 -5.84375 L 1.234375 -7.21875 L 1.265625 -7.53125 L 1.21875 -7.875 L 1.25 -9.515625 L 1.203125 -9.890625 L 1.25 -10.578125 L 1.21875 -11.21875 L 1.40625 -11.5625 L 1.75 -11.703125 L 2.09375 -11.6875 L 2.421875 -11.71875 L 2.734375 -11.6875 L 3.046875 -11.75 L 3.375 -11.703125 L 4.75 -11.734375 L 5.09375 -11.703125 L 5.375 -11.71875 L 5.703125 -11.6875 L 6.078125 -11.71875 L 7.4375 -11.734375 L 7.734375 -11.65625 L 8.078125 -11.65625 L 8.421875 -11.53125 L 8.5625 -11.21875 L 8.59375 -10.203125 L 8.578125 -9.875 L 8.59375 -9.53125 L 8.4375 -9.234375 L 8.078125 -9.03125 L 7.765625 -9.015625 L 5.375 -9.046875 L 5.046875 -8.984375 L 4.734375 -9 L 4.375 -8.875 L 4.21875 -8.546875 L 4.21875 -8.03125 L 4.34375 -7.515625 L 4.703125 -7.359375 L 5.671875 -7.390625 L 6.375 -7.34375 L 6.734375 -7.375 L 7.71875 -7.375 L 8.09375 -7.15625 L 8.265625 -6.6875 L 8.21875 -5.1875 L 8.09375 -4.859375 L 7.765625 -4.71875 L 7.375 -4.734375 L 7.046875 -4.703125 L 6.359375 -4.71875 L 5.71875 -4.6875 L 5.1875 -4.734375 L 4.6875 -4.71875 L 4.390625 -4.53125 L 4.234375 -4.1875 L 4.234375 -3.125 L 4.375 -2.828125 L 4.71875 -2.65625 L 5.09375 -2.6875 L 5.40625 -2.640625 L 5.765625 -2.65625 L 6.109375 -2.625 L 6.65625 -2.6875 L 7.515625 -2.671875 L 7.828125 -2.625 L 8.21875 -2.65625 L 8.5625 -2.515625 L 8.75 -2.171875 L 8.75 -0.484375 L 8.5625 -0.140625 L 8.21875 0.015625 Z M 5.828125 0.046875 "/></g></g></g></svg>